<svg width="159" height="59" viewBox="0 0 159 59" fill="none" xmlns="http://www.w3.org/2000/svg">
<rect x="1.00342" y="0.5" width="157.502" height="57.4688" rx="4.5" fill="#0C0D10"/>
<rect x="1.00342" y="0.5" width="157.502" height="57.4688" rx="4.5" stroke="#A6A6A6"/>
<path d="M102.462 30.4397V33.2283H100.833V35.0571H102.462V41.2708C102.462 43.3925 103.357 44.2412 105.608 44.2412C106.004 44.2412 106.381 44.1907 106.711 44.1301V42.3215C106.428 42.3519 106.249 42.3721 105.938 42.3721C104.93 42.3721 104.488 41.8669 104.488 40.7151V35.0571H106.711V33.2283H104.488V30.4397H102.462Z" fill="white"/>
<path d="M112.446 44.3928C115.441 44.3928 117.278 42.2407 117.278 38.6741C117.278 35.1278 115.431 32.9656 112.446 32.9656C109.45 32.9656 107.604 35.1278 107.604 38.6741C107.604 42.2407 109.441 44.3928 112.446 44.3928ZM112.446 42.463C110.684 42.463 109.695 41.0788 109.695 38.6741C109.695 36.2897 110.684 34.8954 112.446 34.8954C114.198 34.8954 115.196 36.2897 115.196 38.6741C115.196 41.0687 114.198 42.463 112.446 42.463Z" fill="white"/>
<path d="M118.849 44.1806H120.874V37.684C120.874 36.1381 121.958 35.0975 123.493 35.0975C123.851 35.0975 124.454 35.1682 124.623 35.2288V33.0869C124.407 33.0262 124.021 32.9959 123.719 32.9959C122.382 32.9959 121.242 33.784 120.95 34.8651H120.799V33.1778H118.849V44.1806Z" fill="white"/>
<path d="M129.652 34.8146C131.15 34.8146 132.129 35.9361 132.176 37.6638H126.996C127.109 35.9462 128.154 34.8146 129.652 34.8146ZM132.167 41.2101C131.79 42.069 130.952 42.5438 129.727 42.5438C128.107 42.5438 127.062 41.3213 126.996 39.3915V39.2703H134.239V38.5125C134.239 35.0571 132.515 32.9656 129.661 32.9656C126.77 32.9656 124.933 35.1985 124.933 38.7146C124.933 42.2306 126.732 44.3928 129.671 44.3928C132.016 44.3928 133.655 43.1803 134.117 41.2101H132.167Z" fill="white"/>
<path d="M89.1814 40.1174C89.3376 42.8192 91.4366 44.5471 94.5608 44.5471C97.8998 44.5471 99.9891 42.7355 99.9891 39.8452C99.9891 37.5727 98.798 36.3161 95.9081 35.5935L94.3558 35.1851C92.5203 34.7243 91.7784 34.1065 91.7784 33.0278C91.7784 31.6665 92.9304 30.7764 94.6585 30.7764C96.2987 30.7764 97.4312 31.6455 97.6362 33.0383H99.7645C99.6376 30.4936 97.5483 28.7029 94.6877 28.7029C91.6124 28.7029 89.5621 30.4936 89.5621 33.1849C89.5621 35.405 90.7239 36.7245 93.2721 37.3633L95.088 37.8345C96.9528 38.3058 97.7729 38.9969 97.7729 40.1489C97.7729 41.4893 96.4841 42.4632 94.7268 42.4632C92.8425 42.4632 91.5343 41.5521 91.3488 40.1174H89.1814Z" fill="white"/>
<path d="M68.2024 32.9959C66.8083 32.9959 65.6026 33.7436 64.9809 34.9964H64.8302V33.1778H62.8804V47.8381H64.9056V42.5135H65.0657C65.6026 43.6754 66.7612 44.3625 68.2213 44.3625C70.8116 44.3625 72.46 42.17 72.46 38.6741C72.46 35.1783 70.8116 32.9959 68.2024 32.9959ZM67.6278 42.4125C65.9323 42.4125 64.8679 40.9778 64.8679 38.6843C64.8679 36.3806 65.9323 34.9459 67.6372 34.9459C69.3516 34.9459 70.3783 36.3503 70.3783 38.6741C70.3783 41.0081 69.3516 42.4125 67.6278 42.4125Z" fill="white"/>
<path d="M79.5465 32.9959C78.1524 32.9959 76.9467 33.7436 76.3251 34.9964H76.1743V33.1778H74.2245V47.8381H76.2497V42.5135H76.4098C76.9467 43.6754 78.1053 44.3625 79.5654 44.3625C82.1557 44.3625 83.8042 42.17 83.8042 38.6741C83.8042 35.1783 82.1557 32.9959 79.5465 32.9959ZM78.9719 42.4125C77.2764 42.4125 76.212 40.9778 76.212 38.6843C76.212 36.3806 77.2764 34.9459 78.9814 34.9459C80.6957 34.9459 81.7224 36.3503 81.7224 38.6741C81.7224 41.0081 80.6957 42.4125 78.9719 42.4125Z" fill="white"/>
<path d="M59.2468 44.1806H61.5704L56.4839 29.0694H54.131L49.0444 44.1806H51.2899L52.5884 40.1698H57.9581L59.2468 44.1806ZM55.1952 31.8131H55.3611L57.4016 38.201H53.1449L55.1952 31.8131Z" fill="white"/>
<path d="M49.3589 12.733V21.4872H52.3221C54.7678 21.4872 56.184 19.8796 56.184 17.0828C56.184 14.3285 54.7564 12.733 52.3221 12.733H49.3589ZM50.6329 13.9706H52.1799C53.8805 13.9706 54.8873 15.1233 54.8873 17.101C54.8873 19.1091 53.8976 20.2496 52.1799 20.2496H50.6329V13.9706Z" fill="white"/>
<path d="M60.5214 21.6146C62.3301 21.6146 63.4392 20.3224 63.4392 18.1809C63.4392 16.0515 62.3244 14.7532 60.5214 14.7532C58.7127 14.7532 57.598 16.0515 57.598 18.1809C57.598 20.3224 58.7071 21.6146 60.5214 21.6146ZM60.5214 20.4559C59.4578 20.4559 58.8606 19.6248 58.8606 18.1809C58.8606 16.7491 59.4578 15.9119 60.5214 15.9119C61.5793 15.9119 62.1822 16.7491 62.1822 18.1809C62.1822 19.6187 61.5793 20.4559 60.5214 20.4559Z" fill="white"/>
<path d="M72.884 14.8806H71.6612L70.5578 19.922H70.4611L69.1871 14.8806H68.0154L66.7414 19.922H66.6504L65.5413 14.8806H64.3014L66.0077 21.4872H67.2647L68.5387 16.6217H68.6354L69.9151 21.4872H71.1834L72.884 14.8806Z" fill="white"/>
<path d="M74.2923 21.4872H75.5151V17.6227C75.5151 16.5914 76.0896 15.9483 76.9939 15.9483C77.8982 15.9483 78.3305 16.4761 78.3305 17.5378V21.4872H79.5533V17.2102C79.5533 15.6389 78.7912 14.7532 77.4091 14.7532C76.4763 14.7532 75.8621 15.1961 75.5606 15.9301H75.4696V14.8806H74.2923V21.4872Z" fill="white"/>
<path d="M81.4792 21.4872H82.702V12.3022H81.4792V21.4872Z" fill="white"/>
<path d="M87.301 21.6146C89.1097 21.6146 90.2188 20.3224 90.2188 18.1809C90.2188 16.0515 89.104 14.7532 87.301 14.7532C85.4923 14.7532 84.3776 16.0515 84.3776 18.1809C84.3776 20.3224 85.4867 21.6146 87.301 21.6146ZM87.301 20.4559C86.2374 20.4559 85.6402 19.6248 85.6402 18.1809C85.6402 16.7491 86.2374 15.9119 87.301 15.9119C88.3589 15.9119 88.9618 16.7491 88.9618 18.1809C88.9618 19.6187 88.3589 20.4559 87.301 20.4559Z" fill="white"/>
<path d="M93.8622 20.4984C93.1968 20.4984 92.7133 20.1526 92.7133 19.558C92.7133 18.9756 93.1001 18.6662 93.9532 18.6055L95.4661 18.5024V19.0545C95.4661 19.8735 94.7836 20.4984 93.8622 20.4984ZM93.5494 21.5964C94.3627 21.5964 95.0396 21.2203 95.4093 20.559H95.506V21.4872H96.6833V16.9736C96.6833 15.5783 95.8074 14.7532 94.2547 14.7532C92.8498 14.7532 91.8488 15.4812 91.7237 16.6157H92.9067C93.0432 16.1485 93.5153 15.8816 94.1978 15.8816C95.0339 15.8816 95.4661 16.2759 95.4661 16.9736V17.5439L93.7883 17.647C92.3152 17.7441 91.4848 18.4296 91.4848 19.6187C91.4848 20.826 92.355 21.5964 93.5494 21.5964Z" fill="white"/>
<path d="M100.833 21.5964C101.686 21.5964 102.408 21.1657 102.778 20.4438H102.875V21.4872H104.046V12.3022H102.824V15.9301H102.733C102.397 15.2021 101.68 14.7714 100.833 14.7714C99.2689 14.7714 98.2622 16.0939 98.2622 18.1809C98.2622 20.2739 99.2575 21.5964 100.833 21.5964ZM101.18 15.9423C102.204 15.9423 102.846 16.8098 102.846 18.1869C102.846 19.5702 102.209 20.4256 101.18 20.4256C100.145 20.4256 99.5248 19.5823 99.5248 18.1809C99.5248 16.7916 100.15 15.9423 101.18 15.9423Z" fill="white"/>
<path d="M111.976 21.6146C113.785 21.6146 114.894 20.3224 114.894 18.1809C114.894 16.0515 113.779 14.7532 111.976 14.7532C110.168 14.7532 109.053 16.0515 109.053 18.1809C109.053 20.3224 110.162 21.6146 111.976 21.6146ZM111.976 20.4559C110.913 20.4559 110.315 19.6248 110.315 18.1809C110.315 16.7491 110.913 15.9119 111.976 15.9119C113.034 15.9119 113.637 16.7491 113.637 18.1809C113.637 19.6187 113.034 20.4559 111.976 20.4559Z" fill="white"/>
<path d="M116.513 21.4872H117.735V17.6227C117.735 16.5914 118.31 15.9483 119.214 15.9483C120.119 15.9483 120.551 16.4761 120.551 17.5378V21.4872H121.774V17.2102C121.774 15.6389 121.012 14.7532 119.629 14.7532C118.697 14.7532 118.082 15.1961 117.781 15.9301H117.69V14.8806H116.513V21.4872Z" fill="white"/>
<path d="M127.406 13.2365V14.9109H126.422V16.009H127.406V19.74C127.406 21.014 127.946 21.5236 129.305 21.5236C129.544 21.5236 129.772 21.4933 129.971 21.4569V20.371C129.8 20.3892 129.692 20.4013 129.504 20.4013C128.896 20.4013 128.628 20.098 128.628 19.4064V16.009H129.971V14.9109H128.628V13.2365H127.406Z" fill="white"/>
<path d="M131.612 21.4872H132.835V17.6288C132.835 16.6278 133.392 15.9544 134.393 15.9544C135.258 15.9544 135.719 16.4883 135.719 17.5439V21.4872H136.941V17.2223C136.941 15.6511 136.128 14.7593 134.809 14.7593C133.876 14.7593 133.222 15.2021 132.92 15.9423H132.824V12.3022H131.612V21.4872Z" fill="white"/>
<path d="M141.353 15.8634C142.257 15.8634 142.849 16.5368 142.877 17.5742H139.749C139.817 16.5429 140.448 15.8634 141.353 15.8634ZM142.871 19.7036C142.644 20.2193 142.138 20.5044 141.398 20.5044C140.42 20.5044 139.789 19.7704 139.749 18.6116V18.5388H144.123V18.0838C144.123 16.009 143.082 14.7532 141.358 14.7532C139.612 14.7532 138.503 16.0939 138.503 18.2051C138.503 20.3164 139.59 21.6146 141.364 21.6146C142.78 21.6146 143.77 20.8866 144.049 19.7036H142.871Z" fill="white"/>
<path d="M34.4459 29.6738C34.4756 27.2167 35.7128 24.8917 37.6753 23.6047C36.4372 21.7186 34.3635 20.5227 32.2059 20.4507C29.9047 20.1931 27.6738 21.9195 26.5011 21.9195C25.3058 21.9195 23.5003 20.4763 21.5561 20.519C19.0219 20.6063 16.6594 22.1432 15.4265 24.5064C12.7762 29.4008 14.7531 36.594 17.2919 40.5503C18.5621 42.4876 20.0466 44.6516 21.989 44.5749C23.8898 44.4908 24.5998 43.282 26.8942 43.282C29.1673 43.282 29.8334 44.5749 31.8152 44.5261C33.8549 44.4908 35.14 42.5802 36.3656 40.6245C37.2782 39.2442 37.9805 37.7185 38.4464 36.1042C36.0494 35.0228 34.4487 32.4498 34.4459 29.6738Z" fill="white"/>
<path d="M30.7025 17.8489C31.8146 16.4249 32.3625 14.5945 32.2298 12.7466C30.5308 12.9369 28.9613 13.8031 27.8342 15.1725C26.732 16.5104 26.1585 18.3086 26.2669 20.0859C27.9666 20.1045 29.6375 19.2619 30.7025 17.8489Z" fill="white"/>
</svg>
