<svg width="621" height="1024" viewBox="0 0 621 1024" fill="none" xmlns="http://www.w3.org/2000/svg">
<g clip-path="url(#clip0_112_842)">
<rect width="621" height="1024" fill="#005655"/>
<path opacity="0.1" fill-rule="evenodd" clip-rule="evenodd" d="M559.386 595C444.486 670.464 386.592 855.04 535.342 962.517L533.725 1005.39C461.286 968.998 414.362 950.02 314.667 938.922C360.148 934.829 406.231 948.71 499.233 976.726C504.11 978.195 509.117 979.703 514.26 981.25C481.499 859.469 303.53 828.99 205.011 965.348C256.662 970.922 287.017 990.18 316.516 1008.89C332.035 1018.74 347.318 1028.44 365.34 1035.91C409.563 1046.13 454.861 1027.8 482.476 1016.63C493.224 1012.28 501.293 1009.01 505.577 1008.94L545.66 1026.58L545.66 1026.57C557.49 945.626 534.151 723.931 534.151 723.931C553.421 817.159 562.788 869.396 565.923 961.973C611.346 926.941 652.865 862.534 630.151 789.52C621.319 761.132 605.635 729.42 590.937 699.701C567.832 652.986 547.165 611.199 559.386 595Z" fill="url(#paint0_linear_112_842)"/>
<path d="M492.263 375.638C526.076 375.638 553.487 348.227 553.487 314.414C553.487 280.6 526.076 253.189 492.263 253.189C458.45 253.189 431.039 280.6 431.039 314.414C431.039 348.227 458.45 375.638 492.263 375.638Z" stroke="#0BDB90" stroke-width="2.38443" stroke-miterlimit="10"/>
<path d="M476.382 419.532C527.116 419.532 568.244 378.404 568.244 327.67C568.244 276.936 527.116 235.808 476.382 235.808C425.648 235.808 384.52 276.936 384.52 327.67C384.52 378.404 425.648 419.532 476.382 419.532Z" stroke="#0FC6A2" stroke-width="2.38443" stroke-miterlimit="10"/>
<path d="M460.49 463.425C528.145 463.425 582.99 408.58 582.99 340.925C582.99 273.27 528.145 218.425 460.49 218.425C392.835 218.425 337.99 273.27 337.99 340.925C337.99 408.58 392.835 463.425 460.49 463.425Z" stroke="#12B1B3" stroke-width="2.38443" stroke-miterlimit="10"/>
<path d="M444.608 507.32C529.184 507.32 597.746 438.758 597.746 354.182C597.746 269.606 529.184 201.044 444.608 201.044C360.032 201.044 291.47 269.606 291.47 354.182C291.47 438.758 360.032 507.32 444.608 507.32Z" stroke="#169BC5" stroke-width="2.38443" stroke-miterlimit="10"/>
<path d="M428.774 551.213C530.242 551.213 612.498 468.956 612.498 367.488C612.498 266.02 530.242 183.764 428.774 183.764C327.306 183.764 245.049 266.02 245.049 367.488C245.049 468.956 327.306 551.213 428.774 551.213Z" stroke="#1986D7" stroke-width="2.38443" stroke-miterlimit="10"/>
<path d="M412.882 595.106C531.271 595.106 627.244 499.133 627.244 380.744C627.244 262.355 531.271 166.382 412.882 166.382C294.493 166.382 198.52 262.355 198.52 380.744C198.52 499.133 294.493 595.106 412.882 595.106Z" stroke="#1C71E8" stroke-width="2.38443" stroke-miterlimit="10"/>
<path d="M397 639C532.31 639 642 529.31 642 394C642 258.69 532.31 149 397 149C261.69 149 152 258.69 152 394C152 529.31 261.69 639 397 639Z" stroke="#205CFA" stroke-width="2.38443" stroke-miterlimit="10"/>
</g>
<defs>
<linearGradient id="paint0_linear_112_842" x1="636.384" y1="624.219" x2="327.437" y2="1140.59" gradientUnits="userSpaceOnUse">
<stop offset="0.0884423" stop-color="#797A79"/>
<stop offset="1" stop-color="#DDE0DE"/>
</linearGradient>
<clipPath id="clip0_112_842">
<rect width="621" height="1024" fill="white"/>
</clipPath>
</defs>
</svg>
