<svg width="510" height="302" viewBox="0 0 510 302" fill="none" xmlns="http://www.w3.org/2000/svg">
<path opacity="0.1" fill-rule="evenodd" clip-rule="evenodd" d="M509.268 65.6187C380.304 18.024 197.436 81.107 199.351 264.612L163.902 288.783C150.143 208.892 137.532 159.871 87.2327 73.0832C117.544 107.236 133.755 152.553 166.47 244.007C168.186 248.803 169.947 253.727 171.758 258.782C250.257 160.082 169.046 -1.18388 0.831087 0.574446C27.0321 45.4339 29.5742 81.2923 32.0447 116.14C33.3444 134.473 34.6242 152.526 39.319 171.463C57.3698 213.108 99.0248 238.657 124.418 254.232C134.302 260.294 141.722 264.845 144.327 268.246L153.952 310.968L153.953 310.967C226.097 272.394 390.564 121.915 390.564 121.915C327.018 192.801 290.563 231.368 217.957 288.888C273.121 304.616 349.597 299.75 394.835 238.103C412.424 214.134 428.616 182.677 443.789 153.199C467.641 106.861 488.977 65.412 509.268 65.6187Z" fill="url(#paint0_linear_185_975)"/>
<defs>
<linearGradient id="paint0_linear_185_975" x1="531.507" y1="144.914" x2="-67.4029" y2="203.161" gradientUnits="userSpaceOnUse">
<stop offset="0.0884423" stop-color="#797A79"/>
<stop offset="1" stop-color="#DDE0DE"/>
</linearGradient>
</defs>
</svg>
