<svg width="393" height="311" viewBox="0 0 393 311" fill="none" xmlns="http://www.w3.org/2000/svg">
<path opacity="0.1" fill-rule="evenodd" clip-rule="evenodd" d="M392.268 65.6187C263.304 18.024 80.4365 81.107 82.3509 264.612L46.9024 288.783C33.1426 208.892 20.532 159.871 -29.7673 73.0832C0.544338 107.236 16.7551 152.553 49.47 244.007C51.1858 248.803 52.9471 253.727 54.7582 258.782C133.257 160.082 52.0461 -1.18388 -116.169 0.574446C-89.9679 45.4339 -87.4258 81.2923 -84.9553 116.14C-83.6556 134.473 -82.3758 152.526 -77.681 171.463C-59.6302 213.108 -17.9752 238.657 7.41786 254.232C17.3016 260.294 24.7217 264.845 27.3273 268.246L36.9525 310.968L36.9531 310.967C109.097 272.394 273.564 121.915 273.564 121.915C210.018 192.801 173.563 231.368 100.957 288.888C156.121 304.616 232.597 299.75 277.835 238.103C295.424 214.134 311.616 182.677 326.789 153.199C350.641 106.861 371.977 65.412 392.268 65.6187Z" fill="url(#paint0_linear_185_978)"/>
<defs>
<linearGradient id="paint0_linear_185_978" x1="414.507" y1="144.914" x2="-184.403" y2="203.161" gradientUnits="userSpaceOnUse">
<stop offset="0.0884423" stop-color="#797A79"/>
<stop offset="1" stop-color="#DDE0DE"/>
</linearGradient>
</defs>
</svg>
