<svg width="146" height="59" viewBox="0 0 146 59" fill="none" xmlns="http://www.w3.org/2000/svg">
<rect x="0.5" y="0.5" width="144.624" height="57.4688" rx="4.5" fill="black"/>
<rect x="0.5" y="0.5" width="144.624" height="57.4688" rx="4.5" stroke="#A6A6A6"/>
<path d="M66.772 32.9253C64.2435 32.9253 62.1826 34.9355 62.1826 37.704C62.1826 40.4558 64.2435 42.4828 66.772 42.4828C69.3016 42.4828 71.3625 40.4558 71.3625 37.704C71.3614 34.9355 69.3005 32.9253 66.772 32.9253ZM66.772 40.6019C65.3863 40.6019 64.1919 39.4075 64.1919 37.7052C64.1919 35.9849 65.3873 34.8085 66.772 34.8085C68.1577 34.8085 69.3521 35.9849 69.3521 37.7052C69.3521 39.4063 68.1577 40.6019 66.772 40.6019ZM56.759 32.9253C54.2304 32.9253 52.1696 34.9355 52.1696 37.704C52.1696 40.4558 54.2304 42.4828 56.759 42.4828C59.2886 42.4828 61.3494 40.4558 61.3494 37.704C61.3494 34.9355 59.2886 32.9253 56.759 32.9253ZM56.759 40.6019C55.3732 40.6019 54.1788 39.4075 54.1788 37.7052C54.1788 35.9849 55.3743 34.8085 56.759 34.8085C58.1447 34.8085 59.3391 35.9849 59.3391 37.7052C59.3402 39.4063 58.1447 40.6019 56.759 40.6019ZM44.8495 36.4198H49.4916C49.3529 37.5602 48.9896 38.3928 48.4348 38.9715C47.7597 39.6771 46.7029 40.4558 44.8495 40.4558C41.992 40.4558 39.7581 38.0479 39.7581 35.0613C39.7581 32.0747 41.992 29.6668 44.8495 29.6668C46.3912 29.6668 47.5167 30.3005 48.3478 31.1151L49.7163 29.6848C48.5552 28.5263 47.0147 27.6398 44.8495 27.6398C40.9353 27.6398 37.6445 30.9702 37.6445 35.0613C37.6445 39.1524 40.9353 42.4828 44.8495 42.4828C46.962 42.4828 48.5563 41.7581 49.8023 40.4007C51.0838 39.0614 51.4826 37.1782 51.4826 35.6579C51.4826 35.1883 51.4482 34.7534 51.3783 34.3916H44.8495V36.4198ZM93.558 35.9669C93.1774 34.8995 92.0164 32.9253 89.6437 32.9253C87.2883 32.9253 85.3306 34.8624 85.3306 37.704C85.3306 40.3828 87.2711 42.4828 89.8684 42.4828C91.9637 42.4828 93.1764 41.1434 93.6795 40.3648L92.1207 39.2782C91.6014 40.0749 90.8908 40.5996 89.8684 40.5996C88.8471 40.5996 88.1193 40.1108 87.6517 39.1513L93.7655 36.5085L93.558 35.9669ZM87.3227 37.5602C87.2711 35.713 88.6912 34.7725 89.7136 34.7725C90.5102 34.7725 91.1854 35.1894 91.4111 35.786L87.3227 37.5602ZM82.3527 42.194H84.3609V28.1477H82.3527V42.194ZM78.9921 33.9939C78.5417 33.432 77.6752 32.9253 76.5851 32.9253C74.2984 32.9253 72.2032 35.0253 72.2032 37.7231C72.2032 40.4019 74.2984 42.4839 76.5851 42.4839C77.6763 42.4839 78.5417 41.9772 78.9921 41.3985H79.0609V42.0862C79.0609 43.9143 78.1256 44.8918 76.6195 44.8918C75.3896 44.8918 74.6274 43.9693 74.3156 43.1907L72.5665 43.9514C73.0686 45.2177 74.4016 46.775 76.6195 46.775C78.9749 46.775 80.967 45.3267 80.967 41.7963V33.2163H79.062V33.9939H78.9921ZM76.7582 40.6019C75.3724 40.6019 74.2124 39.3883 74.2124 37.7231C74.2124 36.0388 75.3724 34.8085 76.7582 34.8085C78.1256 34.8085 79.1996 36.0388 79.1996 37.7231C79.1996 39.3883 78.1256 40.6019 76.7582 40.6019ZM102.969 28.1477H98.1625V42.194H100.167V36.8726H102.968C105.191 36.8726 107.378 35.1905 107.378 32.5107C107.378 29.8308 105.192 28.1477 102.969 28.1477ZM103.021 34.9175H100.167V30.1028H103.021C104.52 30.1028 105.372 31.4005 105.372 32.5107C105.372 33.5983 104.52 34.9175 103.021 34.9175ZM115.418 32.9006C113.966 32.9006 112.462 33.5691 111.839 35.0512L113.62 35.8276C114 35.0512 114.71 34.7972 115.453 34.7972C116.49 34.7972 117.545 35.4478 117.562 36.604V36.749C117.198 36.5321 116.42 36.2074 115.47 36.2074C113.551 36.2074 111.596 37.3097 111.596 39.3692C111.596 41.2491 113.17 42.4592 114.933 42.4592C116.281 42.4592 117.025 41.8266 117.492 41.085H117.561V42.1693H119.498V36.7838C119.499 34.2916 117.717 32.9006 115.418 32.9006ZM115.175 40.5985C114.519 40.5985 113.602 40.2547 113.602 39.4052C113.602 38.3209 114.744 37.9052 115.73 37.9052C116.61 37.9052 117.026 38.1041 117.562 38.3748C117.406 39.6771 116.334 40.5985 115.175 40.5985ZM126.552 33.2073L124.253 39.2973H124.184L121.798 33.2073H119.637L123.215 41.7187L121.175 46.4537H123.267L128.783 33.2073H126.552ZM108.485 42.194H110.49V28.1477H108.485V42.194Z" fill="white"/>
<path d="M44.1413 16.7666C44.1413 17.7613 43.8757 18.553 43.3434 19.1442C42.7394 19.8469 41.9511 20.1983 40.9829 20.1983C40.0554 20.1983 39.2661 19.8421 38.6181 19.1299C37.9691 18.4165 37.6445 17.5334 37.6445 16.4793C37.6445 15.424 37.9691 14.5409 38.6181 13.8287C39.2661 13.1153 40.0554 12.7592 40.9829 12.7592C41.4434 12.7592 41.8836 12.8589 42.3013 13.0571C42.7201 13.2565 43.0553 13.5212 43.3059 13.8524L42.7415 14.4792C42.3163 13.9153 41.7305 13.634 40.9818 13.634C40.3049 13.634 39.7202 13.8975 39.2264 14.4246C38.7327 14.9516 38.4864 15.6365 38.4864 16.4781C38.4864 17.3197 38.7327 18.0046 39.2264 18.5317C39.7202 19.0587 40.3049 19.3222 40.9818 19.3222C41.6994 19.3222 42.2981 19.0575 42.7768 18.5269C43.0874 18.1815 43.2674 17.7008 43.3156 17.0847H40.9818V16.2288H44.0953C44.1274 16.4152 44.1413 16.5944 44.1413 16.7666Z" fill="white"/>
<path d="M49.0788 13.7919H46.1528V16.0497H48.7918V16.9055H46.1528V19.1632H49.0788V20.0393H45.327V12.9171H49.0788V13.7919Z" fill="white"/>
<path d="M52.5606 20.0393H51.7348V13.7919H49.9398V12.9171H54.3556V13.7919H52.5606V20.0393Z" fill="white"/>
<path d="M57.5504 20.0393V12.9171H58.3761V20.0393H57.5504Z" fill="white"/>
<path d="M62.0381 20.0393H61.2124V13.7919H59.4174V12.9171H63.8332V13.7919H62.0381V20.0393Z" fill="white"/>
<path d="M72.1922 19.1193C71.5603 19.8386 70.7752 20.1983 69.836 20.1983C68.8967 20.1983 68.1116 19.8386 67.4808 19.1193C66.8489 18.4 66.534 17.5192 66.534 16.4782C66.534 15.4371 66.8489 14.5564 67.4808 13.837C68.1116 13.1177 68.8967 12.7568 69.836 12.7568C70.7699 12.7568 71.5539 13.1189 72.1879 13.8418C72.822 14.5647 73.139 15.4431 73.139 16.4782C73.139 17.5192 72.823 18.4 72.1922 19.1193ZM68.0902 18.5222C68.5657 19.0564 69.1473 19.3223 69.836 19.3223C70.5246 19.3223 71.1073 19.0552 71.5817 18.5222C72.0573 17.9881 72.2961 17.3067 72.2961 16.4782C72.2961 15.6496 72.0573 14.9683 71.5817 14.4341C71.1073 13.8999 70.5246 13.634 69.836 13.634C69.1473 13.634 68.5657 13.9011 68.0902 14.4341C67.6157 14.9683 67.3769 15.6496 67.3769 16.4782C67.3769 17.3067 67.6157 17.9881 68.0902 18.5222Z" fill="white"/>
<path d="M74.2979 20.0393V12.9171H75.3025L78.4256 18.457H78.4609L78.4256 17.0848V12.9171H79.2513V20.0393H78.3891L75.1215 14.23H75.0861L75.1215 15.6022V20.0393H74.2979Z" fill="white"/>
<path d="M66.772 32.9253C64.2435 32.9253 62.1826 34.9355 62.1826 37.704C62.1826 40.4558 64.2435 42.4828 66.772 42.4828C69.3016 42.4828 71.3625 40.4558 71.3625 37.704C71.3614 34.9355 69.3005 32.9253 66.772 32.9253ZM66.772 40.6019C65.3863 40.6019 64.1919 39.4075 64.1919 37.7052C64.1919 35.9849 65.3873 34.8085 66.772 34.8085C68.1577 34.8085 69.3521 35.9849 69.3521 37.7052C69.3521 39.4063 68.1577 40.6019 66.772 40.6019ZM56.759 32.9253C54.2304 32.9253 52.1696 34.9355 52.1696 37.704C52.1696 40.4558 54.2304 42.4828 56.759 42.4828C59.2886 42.4828 61.3494 40.4558 61.3494 37.704C61.3494 34.9355 59.2886 32.9253 56.759 32.9253ZM56.759 40.6019C55.3732 40.6019 54.1788 39.4075 54.1788 37.7052C54.1788 35.9849 55.3743 34.8085 56.759 34.8085C58.1447 34.8085 59.3391 35.9849 59.3391 37.7052C59.3402 39.4063 58.1447 40.6019 56.759 40.6019ZM44.8495 36.4198H49.4916C49.3529 37.5602 48.9896 38.3928 48.4348 38.9715C47.7597 39.6771 46.7029 40.4558 44.8495 40.4558C41.992 40.4558 39.7581 38.0479 39.7581 35.0613C39.7581 32.0747 41.992 29.6668 44.8495 29.6668C46.3912 29.6668 47.5167 30.3005 48.3478 31.1151L49.7163 29.6848C48.5552 28.5263 47.0147 27.6398 44.8495 27.6398C40.9353 27.6398 37.6445 30.9702 37.6445 35.0613C37.6445 39.1524 40.9353 42.4828 44.8495 42.4828C46.962 42.4828 48.5563 41.7581 49.8023 40.4007C51.0838 39.0614 51.4826 37.1782 51.4826 35.6579C51.4826 35.1883 51.4482 34.7534 51.3783 34.3916H44.8495V36.4198ZM93.558 35.9669C93.1774 34.8995 92.0164 32.9253 89.6437 32.9253C87.2883 32.9253 85.3306 34.8624 85.3306 37.704C85.3306 40.3828 87.2711 42.4828 89.8684 42.4828C91.9637 42.4828 93.1764 41.1434 93.6795 40.3648L92.1207 39.2782C91.6014 40.0749 90.8908 40.5996 89.8684 40.5996C88.8471 40.5996 88.1193 40.1108 87.6517 39.1513L93.7655 36.5085L93.558 35.9669ZM87.3227 37.5602C87.2711 35.713 88.6912 34.7725 89.7136 34.7725C90.5102 34.7725 91.1854 35.1894 91.4111 35.786L87.3227 37.5602ZM82.3527 42.194H84.3609V28.1477H82.3527V42.194ZM78.9921 33.9939C78.5417 33.432 77.6752 32.9253 76.5851 32.9253C74.2984 32.9253 72.2032 35.0253 72.2032 37.7231C72.2032 40.4019 74.2984 42.4839 76.5851 42.4839C77.6763 42.4839 78.5417 41.9772 78.9921 41.3985H79.0609V42.0862C79.0609 43.9143 78.1256 44.8918 76.6195 44.8918C75.3896 44.8918 74.6274 43.9693 74.3156 43.1907L72.5665 43.9514C73.0686 45.2177 74.4016 46.775 76.6195 46.775C78.9749 46.775 80.967 45.3267 80.967 41.7963V33.2163H79.062V33.9939H78.9921ZM76.7582 40.6019C75.3724 40.6019 74.2124 39.3883 74.2124 37.7231C74.2124 36.0388 75.3724 34.8085 76.7582 34.8085C78.1256 34.8085 79.1996 36.0388 79.1996 37.7231C79.1996 39.3883 78.1256 40.6019 76.7582 40.6019ZM102.969 28.1477H98.1625V42.194H100.167V36.8726H102.968C105.191 36.8726 107.378 35.1905 107.378 32.5107C107.378 29.8308 105.192 28.1477 102.969 28.1477ZM103.021 34.9175H100.167V30.1028H103.021C104.52 30.1028 105.372 31.4005 105.372 32.5107C105.372 33.5983 104.52 34.9175 103.021 34.9175ZM115.418 32.9006C113.966 32.9006 112.462 33.5691 111.839 35.0512L113.62 35.8276C114 35.0512 114.71 34.7972 115.453 34.7972C116.49 34.7972 117.545 35.4478 117.562 36.604V36.749C117.198 36.5321 116.42 36.2074 115.47 36.2074C113.551 36.2074 111.596 37.3097 111.596 39.3692C111.596 41.2491 113.17 42.4592 114.933 42.4592C116.281 42.4592 117.025 41.8266 117.492 41.085H117.561V42.1693H119.498V36.7838C119.499 34.2916 117.717 32.9006 115.418 32.9006ZM115.175 40.5985C114.519 40.5985 113.602 40.2547 113.602 39.4052C113.602 38.3209 114.744 37.9052 115.73 37.9052C116.61 37.9052 117.026 38.1041 117.562 38.3748C117.406 39.6771 116.334 40.5985 115.175 40.5985ZM126.552 33.2073L124.253 39.2973H124.184L121.798 33.2073H119.637L123.215 41.7187L121.175 46.4537H123.267L128.783 33.2073H126.552ZM108.485 42.194H110.49V28.1477H108.485V42.194Z" stroke="white" stroke-width="0.2" stroke-miterlimit="10"/>
<path d="M44.1413 16.7666C44.1413 17.7613 43.8757 18.553 43.3434 19.1442C42.7394 19.8469 41.9511 20.1983 40.9829 20.1983C40.0554 20.1983 39.2661 19.8421 38.6181 19.1299C37.9691 18.4165 37.6445 17.5334 37.6445 16.4793C37.6445 15.424 37.9691 14.5409 38.6181 13.8287C39.2661 13.1153 40.0554 12.7592 40.9829 12.7592C41.4434 12.7592 41.8836 12.8589 42.3013 13.0571C42.7201 13.2565 43.0553 13.5212 43.3059 13.8524L42.7415 14.4792C42.3163 13.9153 41.7305 13.634 40.9818 13.634C40.3049 13.634 39.7202 13.8975 39.2264 14.4246C38.7327 14.9516 38.4864 15.6365 38.4864 16.4781C38.4864 17.3197 38.7327 18.0046 39.2264 18.5317C39.7202 19.0587 40.3049 19.3222 40.9818 19.3222C41.6994 19.3222 42.2981 19.0575 42.7768 18.5269C43.0874 18.1815 43.2674 17.7008 43.3156 17.0847H40.9818V16.2288H44.0953C44.1274 16.4152 44.1413 16.5944 44.1413 16.7666Z" stroke="white" stroke-width="0.2" stroke-miterlimit="10"/>
<path d="M49.0788 13.7919H46.1528V16.0497H48.7918V16.9055H46.1528V19.1632H49.0788V20.0393H45.327V12.9171H49.0788V13.7919Z" stroke="white" stroke-width="0.2" stroke-miterlimit="10"/>
<path d="M52.5606 20.0393H51.7348V13.7919H49.9398V12.9171H54.3556V13.7919H52.5606V20.0393Z" stroke="white" stroke-width="0.2" stroke-miterlimit="10"/>
<path d="M57.5504 20.0393V12.9171H58.3761V20.0393H57.5504Z" stroke="white" stroke-width="0.2" stroke-miterlimit="10"/>
<path d="M62.0381 20.0393H61.2124V13.7919H59.4174V12.9171H63.8332V13.7919H62.0381V20.0393Z" stroke="white" stroke-width="0.2" stroke-miterlimit="10"/>
<path d="M72.1922 19.1193C71.5603 19.8386 70.7752 20.1983 69.836 20.1983C68.8967 20.1983 68.1116 19.8386 67.4808 19.1193C66.8489 18.4 66.534 17.5192 66.534 16.4782C66.534 15.4371 66.8489 14.5564 67.4808 13.837C68.1116 13.1177 68.8967 12.7568 69.836 12.7568C70.7699 12.7568 71.5539 13.1189 72.1879 13.8418C72.822 14.5647 73.139 15.4431 73.139 16.4782C73.139 17.5192 72.823 18.4 72.1922 19.1193ZM68.0902 18.5222C68.5657 19.0564 69.1473 19.3223 69.836 19.3223C70.5246 19.3223 71.1073 19.0552 71.5817 18.5222C72.0573 17.9881 72.2961 17.3067 72.2961 16.4782C72.2961 15.6496 72.0573 14.9683 71.5817 14.4341C71.1073 13.8999 70.5246 13.634 69.836 13.634C69.1473 13.634 68.5657 13.9011 68.0902 14.4341C67.6157 14.9683 67.3769 15.6496 67.3769 16.4782C67.3769 17.3067 67.6157 17.9881 68.0902 18.5222Z" stroke="white" stroke-width="0.2" stroke-miterlimit="10"/>
<path d="M74.2979 20.0393V12.9171H75.3025L78.4256 18.457H78.4609L78.4256 17.0848V12.9171H79.2513V20.0393H78.3891L75.1215 14.23H75.0861L75.1215 15.6022V20.0393H74.2979Z" stroke="white" stroke-width="0.2" stroke-miterlimit="10"/>
<g filter="url(#filter0_ii_115_858)">
<path d="M11.138 15.3305C10.8991 15.6741 10.7578 16.2075 10.7578 16.8982V41.5749C10.7578 42.2667 10.8991 42.7989 11.138 43.1426L11.1988 43.2229L21.3726 29.3994V29.2365V29.0736L11.1988 15.249L11.138 15.3305Z" fill="url(#paint0_linear_115_858)"/>
<path d="M24.7638 34.0087L21.373 29.3993V29.2364V29.0735L24.7646 24.4653L24.841 24.5245L28.8591 27.6264C30.0063 28.5123 30.0063 29.9617 28.8591 30.8487L24.841 33.9506L24.7638 34.0087Z" fill="url(#paint1_linear_115_858)"/>
<g filter="url(#filter1_i_115_858)">
<path d="M24.8402 33.9489L21.3715 29.2358L11.1377 43.1419C11.5154 43.6864 12.1404 43.7533 12.8441 43.2111L24.8402 33.9489Z" fill="url(#paint2_linear_115_858)"/>
</g>
<path d="M24.8402 24.5232L12.8441 15.2622C12.1404 14.7188 11.5154 14.7869 11.1377 15.3314L21.3723 29.2374L24.8402 24.5232Z" fill="url(#paint3_linear_115_858)"/>
</g>
<defs>
<filter id="filter0_ii_115_858" x="10.7578" y="14.8872" width="18.9619" height="28.6982" filterUnits="userSpaceOnUse" color-interpolation-filters="sRGB">
<feFlood flood-opacity="0" result="BackgroundImageFix"/>
<feBlend mode="normal" in="SourceGraphic" in2="BackgroundImageFix" result="shape"/>
<feColorMatrix in="SourceAlpha" type="matrix" values="0 0 0 0 0 0 0 0 0 0 0 0 0 0 0 0 0 0 127 0" result="hardAlpha"/>
<feOffset dy="-0.15"/>
<feComposite in2="hardAlpha" operator="arithmetic" k2="-1" k3="1"/>
<feColorMatrix type="matrix" values="0 0 0 0 0 0 0 0 0 0 0 0 0 0 0 0 0 0 0.12 0"/>
<feBlend mode="normal" in2="shape" result="effect1_innerShadow_115_858"/>
<feColorMatrix in="SourceAlpha" type="matrix" values="0 0 0 0 0 0 0 0 0 0 0 0 0 0 0 0 0 0 127 0" result="hardAlpha"/>
<feOffset dy="0.15"/>
<feComposite in2="hardAlpha" operator="arithmetic" k2="-1" k3="1"/>
<feColorMatrix type="matrix" values="0 0 0 0 1 0 0 0 0 1 0 0 0 0 1 0 0 0 0.25 0"/>
<feBlend mode="normal" in2="effect1_innerShadow_115_858" result="effect2_innerShadow_115_858"/>
</filter>
<filter id="filter1_i_115_858" x="11.1377" y="29.2358" width="13.7026" height="14.3496" filterUnits="userSpaceOnUse" color-interpolation-filters="sRGB">
<feFlood flood-opacity="0" result="BackgroundImageFix"/>
<feBlend mode="normal" in="SourceGraphic" in2="BackgroundImageFix" result="shape"/>
<feColorMatrix in="SourceAlpha" type="matrix" values="0 0 0 0 0 0 0 0 0 0 0 0 0 0 0 0 0 0 127 0" result="hardAlpha"/>
<feOffset dy="-0.15"/>
<feComposite in2="hardAlpha" operator="arithmetic" k2="-1" k3="1"/>
<feColorMatrix type="matrix" values="0 0 0 0 0 0 0 0 0 0 0 0 0 0 0 0 0 0 0.08 0"/>
<feBlend mode="normal" in2="shape" result="effect1_innerShadow_115_858"/>
</filter>
<linearGradient id="paint0_linear_115_858" x1="20.4708" y1="16.6371" x2="2.5923" y2="29.7953" gradientUnits="userSpaceOnUse">
<stop stop-color="#00A0FF"/>
<stop offset="0.0066" stop-color="#00A1FF"/>
<stop offset="0.2601" stop-color="#00BEFF"/>
<stop offset="0.5122" stop-color="#00D2FF"/>
<stop offset="0.7604" stop-color="#00DFFF"/>
<stop offset="1" stop-color="#00E3FF"/>
</linearGradient>
<linearGradient id="paint1_linear_115_858" x1="30.3524" y1="29.2364" x2="10.4828" y2="29.2364" gradientUnits="userSpaceOnUse">
<stop stop-color="#FFE000"/>
<stop offset="0.4087" stop-color="#FFBD00"/>
<stop offset="0.7754" stop-color="#FFA500"/>
<stop offset="1" stop-color="#FF9C00"/>
</linearGradient>
<linearGradient id="paint2_linear_115_858" x1="22.9565" y1="31.7953" x2="-1.28901" y2="49.6396" gradientUnits="userSpaceOnUse">
<stop stop-color="#FF3A44"/>
<stop offset="1" stop-color="#C31162"/>
</linearGradient>
<linearGradient id="paint3_linear_115_858" x1="8.56028" y1="7.11673" x2="19.3866" y2="15.0847" gradientUnits="userSpaceOnUse">
<stop stop-color="#32A071"/>
<stop offset="0.0685" stop-color="#2DA771"/>
<stop offset="0.4762" stop-color="#15CF74"/>
<stop offset="0.8009" stop-color="#06E775"/>
<stop offset="1" stop-color="#00F076"/>
</linearGradient>
</defs>
</svg>
