<svg width="680" height="1008" viewBox="0 0 680 1008" fill="none" xmlns="http://www.w3.org/2000/svg">
<g opacity="0.1">
<circle opacity="0.7" cx="154.046" cy="482.046" r="388.693" transform="rotate(27.3087 154.046 482.046)" stroke="url(#paint0_linear_117_905)" stroke-width="2"/>
<circle opacity="0.7" cx="153.791" cy="481.245" r="319.084" transform="rotate(27.3087 153.791 481.245)" stroke="url(#paint1_linear_117_905)" stroke-width="2"/>
<circle opacity="0.7" cx="154.046" cy="482.046" r="234.006" transform="rotate(27.3087 154.046 482.046)" stroke="url(#paint2_linear_117_905)" stroke-width="2"/>
<circle opacity="0.7" cx="153.501" cy="483.103" r="191.169" transform="rotate(27.3087 153.501 483.103)" stroke="url(#paint3_linear_117_905)" stroke-width="2"/>
<circle opacity="0.7" cx="153.245" cy="482.301" r="138.219" transform="rotate(27.3087 153.245 482.301)" stroke="url(#paint4_linear_117_905)" stroke-width="2"/>
<circle opacity="0.7" cx="153.5" cy="483.104" r="101.927" transform="rotate(27.3087 153.5 483.104)" stroke="url(#paint5_linear_117_905)" stroke-width="2"/>
<circle opacity="0.7" cx="154.558" cy="483.649" r="69.7992" transform="rotate(27.3087 154.558 483.649)" stroke="url(#paint6_linear_117_905)" stroke-width="2"/>
<circle opacity="0.7" cx="154.557" cy="483.649" r="51.9507" transform="rotate(27.3087 154.557 483.649)" stroke="url(#paint7_linear_117_905)" stroke-width="2"/>
<circle opacity="0.7" cx="154.046" cy="482.046" r="279.222" transform="rotate(27.3087 154.046 482.046)" stroke="url(#paint8_linear_117_905)" stroke-width="2"/>
<circle opacity="0.7" cx="154.047" cy="482.046" r="204.258" transform="rotate(27.3087 154.047 482.046)" stroke="url(#paint9_linear_117_905)" stroke-width="2"/>
<circle opacity="0.7" cx="153.501" cy="483.103" r="167.371" transform="rotate(27.3087 153.501 483.103)" stroke="url(#paint10_linear_117_905)" stroke-width="2"/>
<circle opacity="0.7" cx="153.245" cy="482.302" r="121.56" transform="rotate(27.3087 153.245 482.302)" stroke="url(#paint11_linear_117_905)" stroke-width="2"/>
<circle opacity="0.7" cx="153.501" cy="483.103" r="90.0275" transform="rotate(27.3087 153.501 483.103)" stroke="url(#paint12_linear_117_905)" stroke-width="2"/>
<circle opacity="0.7" cx="154.558" cy="483.649" r="61.4699" transform="rotate(27.3087 154.558 483.649)" stroke="url(#paint13_linear_117_905)" stroke-width="2"/>
<circle opacity="0.7" cx="154.558" cy="483.649" r="44.8112" transform="rotate(27.3087 154.558 483.649)" stroke="url(#paint14_linear_117_905)" stroke-width="2"/>
<circle opacity="0.7" cx="154.046" cy="482.046" r="362.515" transform="rotate(27.3087 154.046 482.046)" stroke="url(#paint15_linear_117_905)" stroke-width="2"/>
<circle opacity="0.7" cx="153.79" cy="481.245" r="353.591" transform="rotate(27.3087 153.79 481.245)" stroke="url(#paint16_linear_117_905)" stroke-width="2"/>
<circle opacity="0.7" cx="153.791" cy="481.245" r="297.666" transform="rotate(27.3087 153.791 481.245)" stroke="url(#paint17_linear_117_905)" stroke-width="2"/>
<circle opacity="0.7" cx="154.046" cy="482.046" r="217.347" transform="rotate(27.3087 154.046 482.046)" stroke="url(#paint18_linear_117_905)" stroke-width="2"/>
<circle opacity="0.7" cx="153.501" cy="483.103" r="178.08" transform="rotate(27.3087 153.501 483.103)" stroke="url(#paint19_linear_117_905)" stroke-width="2"/>
<circle opacity="0.7" cx="153.245" cy="482.302" r="129.889" transform="rotate(27.3087 153.245 482.302)" stroke="url(#paint20_linear_117_905)" stroke-width="2"/>
<circle opacity="0.7" cx="153.5" cy="483.104" r="94.7872" transform="rotate(27.3087 153.5 483.104)" stroke="url(#paint21_linear_117_905)" stroke-width="2"/>
<circle opacity="0.7" cx="154.558" cy="483.649" r="65.0396" transform="rotate(27.3087 154.558 483.649)" stroke="url(#paint22_linear_117_905)" stroke-width="2"/>
<circle opacity="0.7" cx="154.558" cy="483.649" r="48.381" transform="rotate(27.3087 154.558 483.649)" stroke="url(#paint23_linear_117_905)" stroke-width="2"/>
<circle opacity="0.7" cx="154.046" cy="482.046" r="261.374" transform="rotate(27.3087 154.046 482.046)" stroke="url(#paint24_linear_117_905)" stroke-width="2"/>
<circle opacity="0.7" cx="154.302" cy="482.848" r="191.764" transform="rotate(27.3087 154.302 482.848)" stroke="url(#paint25_linear_117_905)" stroke-width="2"/>
<circle opacity="0.7" cx="153.5" cy="483.103" r="156.662" transform="rotate(27.3087 153.5 483.103)" stroke="url(#paint26_linear_117_905)" stroke-width="2"/>
<circle opacity="0.7" cx="153.245" cy="482.302" r="113.231" transform="rotate(27.3087 153.245 482.302)" stroke="url(#paint27_linear_117_905)" stroke-width="2"/>
<circle opacity="0.7" cx="153.501" cy="483.103" r="82.8881" transform="rotate(27.3087 153.501 483.103)" stroke="url(#paint28_linear_117_905)" stroke-width="2"/>
<circle opacity="0.7" cx="154.558" cy="483.649" r="56.7103" transform="rotate(27.3087 154.558 483.649)" stroke="url(#paint29_linear_117_905)" stroke-width="2"/>
<circle opacity="0.7" cx="154.558" cy="483.649" r="42.4314" transform="rotate(27.3087 154.558 483.649)" stroke="url(#paint30_linear_117_905)" stroke-width="2"/>
</g>
<defs>
<linearGradient id="paint0_linear_117_905" x1="154.046" y1="92.353" x2="154.046" y2="871.739" gradientUnits="userSpaceOnUse">
<stop stop-color="#797A79"/>
<stop offset="1" stop-color="#DDE0DE"/>
</linearGradient>
<linearGradient id="paint1_linear_117_905" x1="153.791" y1="161.161" x2="153.791" y2="801.328" gradientUnits="userSpaceOnUse">
<stop stop-color="#797A79"/>
<stop offset="1" stop-color="#DDE0DE"/>
</linearGradient>
<linearGradient id="paint2_linear_117_905" x1="154.046" y1="247.041" x2="154.046" y2="717.052" gradientUnits="userSpaceOnUse">
<stop stop-color="#797A79"/>
<stop offset="1" stop-color="#DDE0DE"/>
</linearGradient>
<linearGradient id="paint3_linear_117_905" x1="153.501" y1="290.934" x2="153.501" y2="675.273" gradientUnits="userSpaceOnUse">
<stop stop-color="#797A79"/>
<stop offset="1" stop-color="#DDE0DE"/>
</linearGradient>
<linearGradient id="paint4_linear_117_905" x1="153.245" y1="343.083" x2="153.245" y2="621.52" gradientUnits="userSpaceOnUse">
<stop stop-color="#797A79"/>
<stop offset="1" stop-color="#DDE0DE"/>
</linearGradient>
<linearGradient id="paint5_linear_117_905" x1="153.5" y1="380.177" x2="153.5" y2="586.03" gradientUnits="userSpaceOnUse">
<stop stop-color="#797A79"/>
<stop offset="1" stop-color="#DDE0DE"/>
</linearGradient>
<linearGradient id="paint6_linear_117_905" x1="154.558" y1="412.85" x2="154.558" y2="554.449" gradientUnits="userSpaceOnUse">
<stop stop-color="#797A79"/>
<stop offset="1" stop-color="#DDE0DE"/>
</linearGradient>
<linearGradient id="paint7_linear_117_905" x1="154.557" y1="430.699" x2="154.557" y2="536.6" gradientUnits="userSpaceOnUse">
<stop stop-color="#797A79"/>
<stop offset="1" stop-color="#DDE0DE"/>
</linearGradient>
<linearGradient id="paint8_linear_117_905" x1="154.046" y1="201.824" x2="154.046" y2="762.268" gradientUnits="userSpaceOnUse">
<stop stop-color="#797A79"/>
<stop offset="1" stop-color="#DDE0DE"/>
</linearGradient>
<linearGradient id="paint9_linear_117_905" x1="154.047" y1="276.788" x2="154.047" y2="687.304" gradientUnits="userSpaceOnUse">
<stop stop-color="#797A79"/>
<stop offset="1" stop-color="#DDE0DE"/>
</linearGradient>
<linearGradient id="paint10_linear_117_905" x1="153.501" y1="314.732" x2="153.501" y2="651.474" gradientUnits="userSpaceOnUse">
<stop stop-color="#797A79"/>
<stop offset="1" stop-color="#DDE0DE"/>
</linearGradient>
<linearGradient id="paint11_linear_117_905" x1="153.245" y1="359.742" x2="153.245" y2="604.862" gradientUnits="userSpaceOnUse">
<stop stop-color="#797A79"/>
<stop offset="1" stop-color="#DDE0DE"/>
</linearGradient>
<linearGradient id="paint12_linear_117_905" x1="153.501" y1="392.076" x2="153.501" y2="574.131" gradientUnits="userSpaceOnUse">
<stop stop-color="#797A79"/>
<stop offset="1" stop-color="#DDE0DE"/>
</linearGradient>
<linearGradient id="paint13_linear_117_905" x1="154.558" y1="421.179" x2="154.558" y2="546.119" gradientUnits="userSpaceOnUse">
<stop stop-color="#797A79"/>
<stop offset="1" stop-color="#DDE0DE"/>
</linearGradient>
<linearGradient id="paint14_linear_117_905" x1="154.558" y1="437.838" x2="154.558" y2="529.461" gradientUnits="userSpaceOnUse">
<stop stop-color="#797A79"/>
<stop offset="1" stop-color="#DDE0DE"/>
</linearGradient>
<linearGradient id="paint15_linear_117_905" x1="154.046" y1="118.531" x2="154.046" y2="845.561" gradientUnits="userSpaceOnUse">
<stop stop-color="#797A79"/>
<stop offset="1" stop-color="#DDE0DE"/>
</linearGradient>
<linearGradient id="paint16_linear_117_905" x1="153.79" y1="126.654" x2="153.79" y2="835.836" gradientUnits="userSpaceOnUse">
<stop stop-color="#797A79"/>
<stop offset="1" stop-color="#DDE0DE"/>
</linearGradient>
<linearGradient id="paint17_linear_117_905" x1="153.791" y1="182.579" x2="153.791" y2="779.91" gradientUnits="userSpaceOnUse">
<stop stop-color="#797A79"/>
<stop offset="1" stop-color="#DDE0DE"/>
</linearGradient>
<linearGradient id="paint18_linear_117_905" x1="154.046" y1="263.699" x2="154.046" y2="700.393" gradientUnits="userSpaceOnUse">
<stop stop-color="#797A79"/>
<stop offset="1" stop-color="#DDE0DE"/>
</linearGradient>
<linearGradient id="paint19_linear_117_905" x1="153.501" y1="304.023" x2="153.501" y2="662.183" gradientUnits="userSpaceOnUse">
<stop stop-color="#797A79"/>
<stop offset="1" stop-color="#DDE0DE"/>
</linearGradient>
<linearGradient id="paint20_linear_117_905" x1="153.245" y1="351.413" x2="153.245" y2="613.191" gradientUnits="userSpaceOnUse">
<stop stop-color="#797A79"/>
<stop offset="1" stop-color="#DDE0DE"/>
</linearGradient>
<linearGradient id="paint21_linear_117_905" x1="153.5" y1="387.316" x2="153.5" y2="578.891" gradientUnits="userSpaceOnUse">
<stop stop-color="#797A79"/>
<stop offset="1" stop-color="#DDE0DE"/>
</linearGradient>
<linearGradient id="paint22_linear_117_905" x1="154.558" y1="417.61" x2="154.558" y2="549.689" gradientUnits="userSpaceOnUse">
<stop stop-color="#797A79"/>
<stop offset="1" stop-color="#DDE0DE"/>
</linearGradient>
<linearGradient id="paint23_linear_117_905" x1="154.558" y1="434.268" x2="154.558" y2="533.03" gradientUnits="userSpaceOnUse">
<stop stop-color="#797A79"/>
<stop offset="1" stop-color="#DDE0DE"/>
</linearGradient>
<linearGradient id="paint24_linear_117_905" x1="154.046" y1="219.672" x2="154.046" y2="744.419" gradientUnits="userSpaceOnUse">
<stop stop-color="#797A79"/>
<stop offset="1" stop-color="#DDE0DE"/>
</linearGradient>
<linearGradient id="paint25_linear_117_905" x1="154.302" y1="290.084" x2="154.302" y2="675.612" gradientUnits="userSpaceOnUse">
<stop stop-color="#797A79"/>
<stop offset="1" stop-color="#DDE0DE"/>
</linearGradient>
<linearGradient id="paint26_linear_117_905" x1="153.5" y1="325.441" x2="153.5" y2="640.765" gradientUnits="userSpaceOnUse">
<stop stop-color="#797A79"/>
<stop offset="1" stop-color="#DDE0DE"/>
</linearGradient>
<linearGradient id="paint27_linear_117_905" x1="153.245" y1="368.072" x2="153.245" y2="596.533" gradientUnits="userSpaceOnUse">
<stop stop-color="#797A79"/>
<stop offset="1" stop-color="#DDE0DE"/>
</linearGradient>
<linearGradient id="paint28_linear_117_905" x1="153.501" y1="399.215" x2="153.501" y2="566.991" gradientUnits="userSpaceOnUse">
<stop stop-color="#797A79"/>
<stop offset="1" stop-color="#DDE0DE"/>
</linearGradient>
<linearGradient id="paint29_linear_117_905" x1="154.558" y1="425.939" x2="154.558" y2="541.359" gradientUnits="userSpaceOnUse">
<stop stop-color="#797A79"/>
<stop offset="1" stop-color="#DDE0DE"/>
</linearGradient>
<linearGradient id="paint30_linear_117_905" x1="154.558" y1="440.217" x2="154.558" y2="527.08" gradientUnits="userSpaceOnUse">
<stop stop-color="#797A79"/>
<stop offset="1" stop-color="#DDE0DE"/>
</linearGradient>
</defs>
</svg>
